<svg width="128" height="28" viewBox="0 0 128 28" fill="none" xmlns="http://www.w3.org/2000/svg">
<path fill-rule="evenodd" clip-rule="evenodd" d="M43.587 20.8494C44.444 19.625 44.8594 18.1448 44.7655 16.6527C44.8554 15.1566 44.44 13.6725 43.587 12.4401C42.7741 11.4313 41.5236 10.88 40.2313 10.9619C38.9329 10.886 37.6745 11.4254 36.8356 12.4201C35.9527 13.6246 35.5212 15.1027 35.6171 16.5928C35.5173 18.1049 35.9487 19.601 36.8356 20.8275C37.6486 21.8502 38.909 22.4075 40.2113 22.3256C41.5097 22.4134 42.7701 21.8621 43.587 20.8494ZM46.5235 3.47144V23.6859H44.7657V21.0072C44.3882 21.9001 43.739 22.6472 42.9081 23.1445C42.0172 23.6599 41.0005 23.9156 39.9718 23.8856C38.8292 23.8996 37.7067 23.588 36.7359 22.9847C35.7811 22.3595 35.026 21.4727 34.5586 20.43C34.0173 19.2255 33.7517 17.9132 33.7796 16.5928C33.7497 15.2985 34.0153 14.0161 34.5586 12.8396C35.032 11.8109 35.7871 10.938 36.7359 10.3208C37.7067 9.72153 38.8312 9.41591 39.9718 9.44388C40.9965 9.41391 42.0112 9.6636 42.9081 10.161C43.739 10.6583 44.3882 11.4074 44.7657 12.3003V3.47144H46.5235Z" fill="white"/>
<path fill-rule="evenodd" clip-rule="evenodd" d="M58.7072 21.1088C59.4962 20.2559 59.9237 19.1333 59.9057 17.9728V16.9341H59.3464C57.9382 16.9061 56.528 16.988 55.1318 17.1718C54.4087 17.2537 53.7195 17.5233 53.1343 17.9528C52.7148 18.3823 52.4971 18.9715 52.535 19.5688C52.5131 20.3418 52.8526 21.0808 53.4539 21.5662C54.0791 22.1075 54.8841 22.3932 55.711 22.3672C56.8416 22.3912 57.9322 21.9338 58.7072 21.1088ZM60.3653 10.7619C61.2902 11.8765 61.7416 13.3107 61.6237 14.7569V23.7055H59.9059V21.1887C59.5284 22.0117 58.9152 22.7068 58.1481 23.1862C57.3511 23.6576 56.4383 23.8993 55.5115 23.8853C54.6585 23.8973 53.8156 23.7075 53.0546 23.324C52.3315 23.0044 51.7183 22.4771 51.2968 21.808C50.8614 21.1807 50.6316 20.4337 50.6376 19.6687C50.5917 18.7938 50.8753 17.9289 51.4366 17.2517C52.1737 16.5706 53.0985 16.1231 54.0933 15.9753C55.8071 15.6797 57.5469 15.5539 59.2867 15.5958H59.8859V14.5971C59.9658 13.6083 59.6902 12.6216 59.1069 11.8206C58.4577 11.1954 57.5689 10.8818 56.67 10.9617C55.853 10.9597 55.0381 11.0755 54.2531 11.3012C53.4021 11.5789 52.5952 11.9744 51.8561 12.4798L51.1969 11.1215C51.9759 10.6081 52.8329 10.2226 53.7337 9.98292C54.6645 9.69328 55.6333 9.54547 56.6101 9.54148C57.9763 9.40565 59.3386 9.84709 60.3653 10.7619Z" fill="white"/>
<path fill-rule="evenodd" clip-rule="evenodd" d="M80.8802 3.47107H84.6355L75.6269 23.6855H72.6307L63.6221 3.47107H67.4372L74.0688 19.0893L80.8802 3.47107Z" fill="white"/>
<mask id="mask0" mask-type="alpha" maskUnits="userSpaceOnUse" x="0" y="0" width="128" height="28">
<path fill-rule="evenodd" clip-rule="evenodd" d="M0 27.0917H128V0H0V27.0917Z" fill="black"/>
</mask>
<g mask="url(#mask0)">
<path fill-rule="evenodd" clip-rule="evenodd" d="M86.2527 23.684H89.8282V9.70165H86.2527V23.684ZM86.0527 6.6875H90.0477V3.15198H86.0527V6.6875Z" fill="white"/>
<path fill-rule="evenodd" clip-rule="evenodd" d="M105.388 10.7615C106.303 12.006 106.743 13.536 106.627 15.0761V23.6852H103.031V15.2758C103.103 14.4349 102.886 13.596 102.414 12.8988C101.905 12.3455 101.162 12.0699 100.417 12.1598C99.5218 12.1458 98.6629 12.4993 98.0377 13.1385C97.3985 13.8476 97.0689 14.7825 97.1188 15.7353V23.7251H93.5254V9.74284H97.021V11.7403C97.5004 10.9573 98.1915 10.3281 99.0184 9.92261C99.8574 9.49515 100.79 9.28342 101.733 9.30339C103.107 9.22749 104.444 9.76081 105.388 10.7615Z" fill="white"/>
<path fill-rule="evenodd" clip-rule="evenodd" d="M112.821 23.0264C111.758 22.4491 110.893 21.5663 110.344 20.4876C109.748 19.3151 109.453 18.0108 109.485 16.6944C109.455 15.3541 109.764 14.0278 110.382 12.8393C110.961 11.7347 111.86 10.8298 112.958 10.2426C114.135 9.60739 115.457 9.2898 116.794 9.32375C117.784 9.32575 118.769 9.48155 119.71 9.78317C120.555 10.0488 121.338 10.4843 122.009 11.0616L120.97 13.5983C120.409 13.1309 119.772 12.7594 119.093 12.4977C118.453 12.256 117.776 12.1262 117.095 12.1202C116.003 12.0583 114.94 12.4917 114.197 13.2987C113.444 14.2395 113.072 15.43 113.16 16.6345C113.074 17.839 113.452 19.0335 114.217 19.9703C114.958 20.7773 116.022 21.2087 117.113 21.1488C117.796 21.1408 118.473 21.013 119.111 20.7693C119.79 20.4996 120.423 20.1301 120.99 19.6687L122.009 22.1275C121.328 22.7268 120.521 23.1682 119.652 23.4259C118.691 23.7435 117.686 23.9053 116.676 23.9033C115.337 23.9393 114.011 23.6376 112.821 23.0264Z" fill="white"/>
<path fill-rule="evenodd" clip-rule="evenodd" d="M124.205 23.684H127.78V9.70165H124.205V23.684ZM124.005 6.6875H128V3.15198H124.005V6.6875Z" fill="white"/>
<path fill-rule="evenodd" clip-rule="evenodd" d="M20.5554 6.68677L2.15866 11.6405C1.06005 11.5506 0.0952667 12.3696 0.00538041 13.4702C-0.0605362 14.2971 0.390893 15.0801 1.13994 15.4357L11.9063 26.1821C13.4244 27.7201 15.1222 27.2607 15.6815 25.1634L20.5554 6.68677Z" fill="#4E6C85"/>
<path fill-rule="evenodd" clip-rule="evenodd" d="M5.87402 10.6212L19.3969 24.1441C19.8723 25.1388 21.0648 25.5623 22.0615 25.0869C22.8006 24.7333 23.248 23.9623 23.1921 23.1453L27.187 8.44395C27.7463 6.44648 26.4879 5.10817 24.4106 5.66746L5.87402 10.6212Z" fill="#00ADE8"/>
<path fill-rule="evenodd" clip-rule="evenodd" d="M16.6217 21.3877L21.5754 2.89111C22.1347 0.81374 20.8763 -0.424692 18.7989 0.1346L4.15743 3.98972C2.02013 4.62891 1.56072 6.32676 3.09877 7.84484L16.6217 21.3877Z" fill="#69FABC"/>
</g>
<mask id="mask1" mask-type="alpha" maskUnits="userSpaceOnUse" x="5" y="6" width="16" height="16">
<path fill-rule="evenodd" clip-rule="evenodd" d="M5.875 10.6205L16.6214 21.3869L20.5564 6.6875L5.875 10.6205Z" fill="white"/>
</mask>
<g mask="url(#mask1)">
<path fill-rule="evenodd" clip-rule="evenodd" d="M5.875 10.6205L16.6214 21.3869L20.5564 6.6875L5.875 10.6205Z" fill="url(#paint0_radial)"/>
</g>
<defs>
<radialGradient id="paint0_radial" cx="0" cy="0" r="1" gradientUnits="userSpaceOnUse" gradientTransform="translate(5.9023 10.6986) rotate(-135) scale(15.001)">
<stop stop-color="#00ACE8"/>
<stop offset="1" stop-color="#69F9BC"/>
</radialGradient>
</defs>
</svg>
