<?xml version="1.0" encoding="utf-8"?>
<!-- Generator: Adobe Illustrator 23.1.0, SVG Export Plug-In . SVG Version: 6.00 Build 0)  -->
<svg version="1.1" id="Layer_7" xmlns="http://www.w3.org/2000/svg" xmlns:xlink="http://www.w3.org/1999/xlink" x="0px" y="0px"
	 width="1745.2px" height="792.739px" viewBox="0 0 1745.2 792.739" enable-background="new 0 0 1745.2 792.739"
	 xml:space="preserve">
<path fill="#403352" d="M564.7,226.45c-0.2-6.8-5-12.6-11.8-13.5c-31.5-4.3-62.6-11.9-93.1-23c-30.3-11.2-63.9-26.7-100.1-47.1
	c-4.6-2.6-8.9-2.6-13.5,0c-36,20.4-69.3,35.9-99.9,47.1c-30.5,11.1-61.6,18.7-92.9,23c-6.8,0.9-11.5,6.7-12.3,13.5
	c-3,128.4,25.1,233.5,84.1,315.2c32.1,44.5,72.4,80.6,120.9,108.2c3.8,2.8,9.6,2.5,14,0c48.2-28,88.4-63.9,120.4-108.2
	C539.7,459.95,567.6,354.85,564.7,226.45z"/>
<linearGradient id="SVGID_1_" gradientUnits="userSpaceOnUse" x1="593.4384" y1="-1600.8336" x2="1326.7584" y2="-1600.8336" gradientTransform="matrix(0.7765 -0.2235 0.2235 -0.7765 203.1076 -634.9822)">
	<stop  offset="0" style="stop-color:#000000"/>
	<stop  offset="1" style="stop-color:#000000;stop-opacity:0.7"/>
</linearGradient>
<path opacity="0.2" fill="url(#SVGID_1_)" enable-background="new    " d="M432.9,266.45c-20.7,20-92.7,90.6-92.7,90.6
	s-5.6,161.2-10.7,186.4l75.9,75.9c28.7-22.3,53.7-48.1,75.1-77.7c41.5-57.3,67.6-126.1,78.5-206.4
	C517,312.25,474.9,289.35,432.9,266.45z"/>
<g>
	<path fill="#C23A76" d="M380.8,350.55l-46.1-1.1l88.1-79.6c4.5-4.5,11.9-4.2,16,0.7l18.6,22c1.8,3.7,1.4,8-1,11.3l-28.9,39.2
		C416.6,357.85,399.1,350.85,380.8,350.55z"/>
	<path fill="#F24B93" d="M375.4,511.25l-34.5,30.3c-7,6.2-18.1,1.2-18.1-8.2v-186l50.7,31.3c3.2,2,5.1,5.5,5.2,9.2l0.4,115.1
		C379.1,506.25,377.8,509.25,375.4,511.25z"/>
	<path fill="#C23A76" d="M378.7,452.25v-64.4c0-3.7-1.9-7.1-5-9.1l-97.5-63l-26.7,35.9c-3.7,5-2.5,12.1,2.7,15.5L378.7,452.25z"/>
	<path fill="#F24B93" d="M411.7,357.85H252.2c-4.1,0-5.5-2.7-3.1-6l32.4-45.7c2-2.9,5.4-4.6,8.9-4.6h164.7c1.1,0,3,0,2.3,0.9
		l-36.9,50.9C418.4,356.25,415.2,357.85,411.7,357.85z"/>
</g>
<g enable-background="new    ">
	<path fill="#F24B93" d="M671.3,482.25v-108h-37.1v-32.9h115.6v32.9h-37.1v108H671.3z"/>
	<path fill="#F24B93" d="M819.4,482.25H778v-141h62.6c18.6,0,32.8,4.2,42.6,12.6c9.6,8.3,14.4,20,14.4,35.3c0,8.5-2,16.3-5.9,23.4
		c-4.1,7.4-9.7,12.8-16.9,16.2l26.8,53.4h-46.3l-22.3-47.2h-13.6V482.25L819.4,482.25z M819.4,407.55h17.1c5.8,0,10.4-1.6,13.8-4.9
		c3.3-3.3,5-7.6,5-12.9s-1.7-9.6-5.2-12.9c-3.5-3.4-7.9-5.1-13.5-5.1h-17.2L819.4,407.55L819.4,407.55z"/>
	<path fill="#F24B93" d="M969.6,427.45c0,7.4,1.8,13.1,5.4,17c3.5,4,8.6,6,15.3,6c6.7,0,11.8-2,15.3-6c3.6-3.9,5.4-9.6,5.4-17v-86.1
		h41.4v90.7c0,16-5.7,28.8-17.1,38.4c-11.3,9.5-26.3,14.3-45,14.3c-18.7,0-33.7-4.8-45-14.3c-11.4-9.6-17.1-22.4-17.1-38.4v-90.7
		h41.4L969.6,427.45L969.6,427.45z"/>
	<path fill="#F24B93" d="M1121.2,440.65c0.6,3.9,3,7.1,7.3,9.7c4.2,2.4,9.1,3.6,14.7,3.6c6.1,0,11-1.1,14.6-3.3
		c3.6-2.2,5.4-5,5.4-8.5c0-3.3-1.5-5.8-4.5-7.5c-2.9-1.7-8.1-3.2-15.8-4.6l-18.7-3.3c-12.9-2.2-22.8-6.9-29.7-14.2
		c-6.8-7.1-10.3-16.2-10.3-27.2c0-14.1,5.5-25.4,16.4-34c10.7-8.3,24.5-12.5,41.6-12.5c18.6,0,33,4,43.4,12
		c10.1,7.9,15.2,18.7,15.3,32.5h-37.8c-0.1-4.3-2.1-7.7-6-10.3c-3.7-2.5-8.4-3.7-14.2-3.7c-5.4,0-9.7,1-12.9,3.1
		c-3.2,2.1-4.8,4.9-4.8,8.4c0,3.3,1.5,6,4.6,7.9c2.9,2,7.8,3.5,14.6,4.7l19.3,3.3c13.7,2.4,23.8,6.9,30.4,13.6
		c6.5,6.6,9.8,15.6,9.8,27.1c0,14.4-5.6,25.8-16.7,34.4c-11.2,8.5-26.2,12.8-44.9,12.8c-19,0-33.8-3.8-44.3-11.4
		c-10.7-7.7-16-18.5-16.1-32.5h39.3V440.65z"/>
	<path fill="#F24B93" d="M1265.5,482.25v-108h-37.1v-32.9H1344v32.9h-37.1v108H1265.5z"/>
	<path fill="#F24B93" d="M1471.6,482.25h-99.4v-141h99.4v32.9h-58v22.8h54.4v29.7h-54.4v22.7h58V482.25z"/>
	<path fill="#F24B93" d="M1604.3,482.25h-99.4v-141h99.4v32.9h-58v22.8h54.4v29.7h-54.4v22.7h58V482.25z"/>
</g>
</svg>
